HIERARCHY
ROOT Hips
{
    OFFSET 0.000000 0.000000 0.000000
    CHANNELS 6 Xposition Yposition Zposition Zrotation Xrotation Yrotation
    JOINT Spine
    {
        OFFSET -0.000000 7.305680 0.000000
        CHANNELS 3 Zrotation Xrotation Yrotation
        JOINT Spine1
        {
            OFFSET -0.000000 20.356600 0.000000
            CHANNELS 3 Zrotation Xrotation Yrotation
            JOINT Neck
            {
                OFFSET -0.000000 22.138500 0.000000
                CHANNELS 3 Zrotation Xrotation Yrotation
                JOINT Head
                {
                    OFFSET -0.000000 13.809501 1.781870
                    CHANNELS 3 Zrotation Xrotation Yrotation
                    End Site
                    {
                        OFFSET -0.000000 17.818779 0.000000
                    }
                }
            }
            JOINT LeftShoulder
            {
                OFFSET 3.599130 17.990000 0.023591
                CHANNELS 3 Zrotation Xrotation Yrotation
                JOINT LeftArm
                {
                    OFFSET 12.560999 0.000000 0.000000
                    CHANNELS 3 Zrotation Xrotation Yrotation
                    JOINT LeftForeArm
                    {
                        OFFSET 22.903299 0.000000 0.000000
                        CHANNELS 3 Zrotation Xrotation Yrotation
                        JOINT LeftHand
                        {
                            OFFSET 21.865299 0.000000 0.000000
                            CHANNELS 3 Zrotation Xrotation Yrotation
                            JOINT LeftHandThumb1
                            {
                                OFFSET 1.853710 -2.106480 2.949080
                                CHANNELS 3 Zrotation Xrotation Yrotation
                                JOINT LeftHandThumb2
                                {
                                    OFFSET 2.049150 0.000000 1.336400
                                    CHANNELS 3 Zrotation Xrotation Yrotation
                                    JOINT LeftHandThumb3
                                    {
                                        OFFSET 2.672810 0.000000 0.000000
                                        CHANNELS 3 Zrotation Xrotation Yrotation
                                        End Site
                                        {
                                            OFFSET 2.381310 0.000000 0.000000
                                        }
                                    }
                                }
                            }
                            JOINT LeftHandIndex1
                            {
                                OFFSET 7.583340 0.000000 2.949080
                                CHANNELS 3 Zrotation Xrotation Yrotation
                                JOINT LeftHandIndex2
                                {
                                    OFFSET 4.454680 0.000000 0.000000
                                    CHANNELS 3 Zrotation Xrotation Yrotation
                                    JOINT LeftHandIndex3
                                    {
                                        OFFSET 2.227340 0.000000 0.000000
                                        CHANNELS 3 Zrotation Xrotation Yrotation
                                        End Site
                                        {
                                            OFFSET 1.984424 0.000000 0.000000
                                        }
                                    }
                                }
                            }
                            JOINT LeftHandMiddle1
                            {
                                OFFSET 7.583340 0.000000 0.977409
                                CHANNELS 3 Zrotation Xrotation Yrotation
                                JOINT LeftHandMiddle2
                                {
                                    OFFSET 4.900150 0.000000 0.000000
                                    CHANNELS 3 Zrotation Xrotation Yrotation
                                    JOINT LeftHandMiddle3
                                    {
                                        OFFSET 2.672810 0.000000 0.000000
                                        CHANNELS 3 Zrotation Xrotation Yrotation
                                        End Site
                                        {
                                            OFFSET 2.381310 0.000000 0.000000
                                        }
                                    }
                                }
                            }
                            JOINT LeftHandRing1
                            {
                                OFFSET 7.162050 0.000000 -0.977409
                                CHANNELS 3 Zrotation Xrotation Yrotation
                                JOINT LeftHandRing2
                                {
                                    OFFSET 4.454680 0.000000 0.000000
                                    CHANNELS 3 Zrotation Xrotation Yrotation
                                    JOINT LeftHandRing3
                                    {
                                        OFFSET 2.227340 0.000000 0.000000
                                        CHANNELS 3 Zrotation Xrotation Yrotation
                                        End Site
                                        {
                                            OFFSET 1.984424 0.000000 0.000000
                                        }
                                    }
                                }
                            }
                            JOINT LeftHandPinky1
                            {
                                OFFSET 6.740750 0.000000 -2.949080
                                CHANNELS 3 Zrotation Xrotation Yrotation
                                JOINT LeftHandPinky2
                                {
                                    OFFSET 3.563750 0.000000 0.000000
                                    CHANNELS 3 Zrotation Xrotation Yrotation
                                    JOINT LeftHandPinky3
                                    {
                                        OFFSET 1.781870 0.000000 0.000000
                                        CHANNELS 3 Zrotation Xrotation Yrotation
                                        End Site
                                        {
                                            OFFSET 1.587538 0.000000 0.000000
                                        }
                                    }
                                }
                            }
                        }
                    }
                }
            }
            JOINT RightShoulder
            {
                OFFSET -3.506990 17.990000 0.023591
                CHANNELS 3 Zrotation Xrotation Yrotation
                JOINT RightArm
                {
                    OFFSET -12.560999 0.000000 0.000000
                    CHANNELS 3 Zrotation Xrotation Yrotation
                    JOINT RightForeArm
                    {
                        OFFSET -22.903299 0.000000 0.000000
                        CHANNELS 3 Zrotation Xrotation Yrotation
                        JOINT RightHand
                        {
                            OFFSET -21.865299 0.000000 0.000000
                            CHANNELS 3 Zrotation Xrotation Yrotation
                            JOINT RightHandThumb1
                            {
                                OFFSET -1.853710 -2.106480 2.949080
                                CHANNELS 3 Zrotation Xrotation Yrotation
                                JOINT RightHandThumb2
                                {
                                    OFFSET -2.049150 0.000000 1.336400
                                    CHANNELS 3 Zrotation Xrotation Yrotation
                                    JOINT RightHandThumb3
                                    {
                                        OFFSET -2.672810 0.000000 0.000000
                                        CHANNELS 3 Zrotation Xrotation Yrotation
                                        End Site
                                        {
                                            OFFSET -2.381310 0.000000 0.000000
                                        }
                                    }
                                }
                            }
                            JOINT RightHandIndex1
                            {
                                OFFSET -7.583340 0.000000 2.949080
                                CHANNELS 3 Zrotation Xrotation Yrotation
                                JOINT RightHandIndex2
                                {
                                    OFFSET -4.454680 0.000000 0.000000
                                    CHANNELS 3 Zrotation Xrotation Yrotation
                                    JOINT RightHandIndex3
                                    {
                                        OFFSET -2.227340 0.000000 0.000000
                                        CHANNELS 3 Zrotation Xrotation Yrotation
                                        End Site
                                        {
                                            OFFSET -1.984424 0.000000 0.000000
                                        }
                                    }
                                }
                            }
                            JOINT RightHandMiddle1
                            {
                                OFFSET -7.583340 0.000000 0.977409
                                CHANNELS 3 Zrotation Xrotation Yrotation
                                JOINT RightHandMiddle2
                                {
                                    OFFSET -4.900150 0.000000 0.000000
                                    CHANNELS 3 Zrotation Xrotation Yrotation
                                    JOINT RightHandMiddle3
                                    {
                                        OFFSET -2.672810 0.000000 0.000000
                                        CHANNELS 3 Zrotation Xrotation Yrotation
                                        End Site
                                        {
                                            OFFSET -2.381310 0.000000 0.000000
                                        }
                                    }
                                }
                            }
                            JOINT RightHandRing1
                            {
                                OFFSET -7.162050 0.000000 -0.977409
                                CHANNELS 3 Zrotation Xrotation Yrotation
                                JOINT RightHandRing2
                                {
                                    OFFSET -4.454680 0.000000 0.000000
                                    CHANNELS 3 Zrotation Xrotation Yrotation
                                    JOINT RightHandRing3
                                    {
                                        OFFSET -2.227340 0.000000 0.000000
                                        CHANNELS 3 Zrotation Xrotation Yrotation
                                        End Site
                                        {
                                            OFFSET -1.984424 0.000000 0.000000
                                        }
                                    }
                                }
                            }
                            JOINT RightHandPinky1
                            {
                                OFFSET -6.740750 0.000000 -2.949080
                                CHANNELS 3 Zrotation Xrotation Yrotation
                                JOINT RightHandPinky2
                                {
                                    OFFSET -3.563750 0.000000 0.000000
                                    CHANNELS 3 Zrotation Xrotation Yrotation
                                    JOINT RightHandPinky3
                                    {
                                        OFFSET -1.781870 0.000000 0.000000
                                        CHANNELS 3 Zrotation Xrotation Yrotation
                                        End Site
                                        {
                                            OFFSET -1.587538 0.000000 0.000000
                                        }
                                    }
                                }
                            }
                        }
                    }
                }
            }
        }
    }
    JOINT LeftUpLeg
    {
        OFFSET 8.909360 0.000000 0.000000
        CHANNELS 3 Zrotation Xrotation Yrotation
        JOINT LeftLeg
        {
            OFFSET -0.000000 -38.765602 0.000000
            CHANNELS 3 Zrotation Xrotation Yrotation
            JOINT LeftFoot
            {
                OFFSET -0.000000 -35.245003 0.000000
                CHANNELS 3 Zrotation Xrotation Yrotation
                JOINT LeftToeBase
                {
                    OFFSET -0.000000 -5.791090 13.364000
                    CHANNELS 3 Zrotation Xrotation Yrotation
                    End Site
                    {
                        OFFSET -0.000000 0.000000 3.563756
                    }
                }
            }
        }
    }
    JOINT RightUpLeg
    {
        OFFSET -8.909360 0.000000 0.000000
        CHANNELS 3 Zrotation Xrotation Yrotation
        JOINT RightLeg
        {
            OFFSET -0.000000 -38.765602 0.000000
            CHANNELS 3 Zrotation Xrotation Yrotation
            JOINT RightFoot
            {
                OFFSET -0.000000 -35.245003 0.000000
                CHANNELS 3 Zrotation Xrotation Yrotation
                JOINT RightToeBase
                {
                    OFFSET -0.000000 -5.791090 13.364000
                    CHANNELS 3 Zrotation Xrotation Yrotation
                    End Site
                    {
                        OFFSET -0.000000 0.000000 3.563756
                    }
                }
            }
        }
    }
}
MOTION
Frames:    4
Frame Time:    0.033333
-8.327237    81.334381    147.631775    -0.179274    2.920530    6.822626    -0.634217    -0.706997    -3.040797    1.692361    4.063361    -1.072271    -0.113752    -7.046528    2.988474    4.581125    -17.154421    3.184649    1.170731    3.182853    -13.641346    -86.562874    30.295486    -4.347937    20.343834    -8.312322    -15.532460    -6.507521    -27.333233    4.825469    0.056843    0.208168    0.316849    -0.000000    0.000000    0.825249    -0.000000    0.000000    1.650498    -14.604974    2.788418    -10.575126    -29.726177    0.000000    0.000000    -14.863087    0.000000    0.000000    -24.980658    -0.728108    -2.361762    -49.971786    0.000000    0.000000    -24.985895    0.000000    0.000000    -34.792511    -5.630714    5.118439    -70.217384    0.000000    0.000000    -35.108704    0.000000    0.000000    -44.289597    -11.901125    11.936678    -91.076500    0.000000    0.000000    -45.538254    0.000000    0.000000    -3.840342    -1.609494    -0.138874    93.984322    48.364414    -8.442541    -11.581244    -29.781019    2.252086    15.906953    -44.778225    0.539398    -0.320839    -2.102305    3.050217    0.000000    0.000000    0.000000    0.000000    0.000000    0.000000    12.700179    0.123706    0.548903    25.401545    0.000000    -0.000000    12.700772    0.000000    -0.000000    19.108429    -0.884164    -1.693924    38.256439    0.000000    -0.000000    19.128218    0.000000    -0.000000    25.475769    -2.135321    -3.811381    51.111332    0.000000    -0.000000    25.555664    0.000000    -0.000000    31.991199    -3.660886    -5.836386    64.355766    0.000000    -0.000000    32.177883    0.000000    -0.000000    -1.191836    -0.036905    -5.077002    0.195345    -8.050773    22.034918    1.653700    5.397858    -25.987148    0.293682    -3.736491    -1.271782    -0.620203    -0.777091    4.583062    1.290250    -2.021915    -13.473067    -1.163071    -1.974657    0.955225    -0.044193    -2.573220    -0.197673    
-8.349275    81.327003    147.639618    -0.114698    2.655437    6.476570    -0.664531    -0.585742    -2.909499    1.576458    4.367839    -1.028736    -0.102378    -6.741254    3.067301    4.753288    -17.389540    3.280810    1.203060    3.061258    -13.727555    -86.034431    29.973122    -4.421427    20.489613    -8.506495    -15.851067    -6.294690    -27.340626    4.807015    0.060517    0.202470    0.314598    -0.000000    0.000000    0.808918    -0.000000    0.000000    1.617836    -14.656597    2.808390    -10.610787    -29.834890    0.000000    0.000000    -14.917443    0.000000    0.000000    -25.101772    -0.726678    -2.389507    -50.213661    0.000000    0.000000    -25.106829    0.000000    0.000000    -34.979824    -5.657769    5.089472    -70.592422    0.000000    0.000000    -35.296204    0.000000    0.000000    -44.543427    -11.964656    11.894832    -91.588715    0.000000    0.000000    -45.794357    0.000000    0.000000    -3.833220    -1.637197    0.018782    93.982040    48.545002    -8.319973    -11.568762    -29.814854    2.306805    16.018528    -44.825348    0.810561    -0.492151    -2.079086    2.896328    0.000000    0.000000    0.000000    0.000000    0.000000    0.000000    12.539496    0.044220    0.198813    25.079147    0.000000    -0.000000    12.539574    0.000000    -0.000000    18.919025    -1.010878    -2.071676    37.890247    0.000000    -0.000000    18.945120    0.000000    -0.000000    25.255659    -2.310934    -4.212176    50.701347    0.000000    -0.000000    25.350670    0.000000    -0.000000    31.737764    -3.888065    -6.256235    63.900669    0.000000    -0.000000    31.950327    0.000000    -0.000000    -1.257638    0.225263    -4.806488    0.275998    -7.969992    22.168745    1.683348    5.485907    -25.988127    0.295614    -3.872296    -1.298513    -0.620303    -0.517121    4.529324    1.274367    -2.071309    -13.311708    -1.195708    -1.904190    1.191311    -0.046036    -2.596110    -0.197178    
-8.367764    81.321022    147.658020    -0.071302    2.381701    6.050435    -0.690860    -0.463564    -2.777112    1.483134    4.635629    -0.984632    -0.069228    -6.454598    3.186908    4.880489    -17.478134    3.413909    1.253060    2.982983    -13.754093    -85.668915    29.852423    -4.365382    20.672571    -8.941913    -15.909626    -6.078090    -27.369366    4.892975    0.063245    0.206936    0.323255    -0.000000    0.000000    0.816611    -0.000000    0.000000    1.633221    -14.682188    2.806566    -10.585180    -29.884464    0.000000    0.000000    -14.942229    0.000000    0.000000    -25.168392    -0.756400    -2.349208    -50.348267    0.000000    0.000000    -25.174133    0.000000    0.000000    -35.082924    -5.722607    5.136356    -70.812050    0.000000    0.000000    -35.406033    0.000000    0.000000    -44.681141    -12.070389    11.939530    -91.895981    0.000000    0.000000    -45.947990    0.000000    0.000000    -3.866408    -1.760673    0.214622    94.153763    48.831970    -8.380029    -11.604616    -29.714560    2.355822    16.032351    -44.734135    0.885226    -0.551041    -2.081196    2.858981    0.000000    0.000000    0.000000    0.000000    0.000000    0.000000    12.456439    0.000000    -0.000000    24.912878    0.000000    -0.000000    12.456439    0.000000    -0.000000    18.836510    -1.073035    -2.263862    37.732063    0.000000    -0.000000    18.866030    0.000000    -0.000000    25.173347    -2.390193    -4.395838    50.551235    0.000000    -0.000000    25.275618    0.000000    -0.000000    31.655586    -3.983851    -6.429275    63.758865    0.000000    -0.000000    31.879433    0.000000    -0.000000    -1.261825    0.517179    -4.670137    0.307454    -7.891598    22.132122    1.644238    5.440355    -25.641356    0.297557    -3.921488    -1.311558    -0.614550    -0.303334    4.507586    1.291407    -2.018929    -13.037255    -1.209594    -1.891465    1.360633    -0.047712    -2.603528    -0.195283    
-8.381707    81.314964    147.694580    -0.058762    2.100292    5.556511    -0.728382    -0.373236    -2.672371    1.470410    4.920162    -0.953026    -0.084256    -6.188866    3.370899    5.000396    -17.515320    3.607681    1.291608    2.945589    -13.737648    -85.349472    29.762918    -4.229092    20.629786    -9.275451    -15.719868    -5.776389    -27.496038    5.085810    0.069918    0.218518    0.345236    -0.000000    0.000000    0.841039    -0.000000    0.000000    1.682078    -14.616330    2.772866    -10.509161    -29.742788    0.000000    0.000000    -14.871394    0.000000    0.000000    -25.142399    -0.785982    -2.296267    -50.297428    0.000000    0.000000    -25.148714    0.000000    0.000000    -35.099499    -5.749412    5.163995    -70.852051    0.000000    0.000000    -35.426033    0.000000    0.000000    -44.745583    -12.095191    11.936890    -92.029556    0.000000    0.000000    -46.014778    0.000000    0.000000    -3.886830    -1.817197    0.435163    94.204544    49.244820    -8.369093    -11.666738    -29.633057    2.408776    15.970806    -44.571457    0.865682    -0.594973    -2.047040    2.776705    0.000000    0.000000    0.000000    0.000000    0.000000    0.000000    12.441056    0.000000    -0.000000    24.882113    0.000000    -0.000000    12.441056    0.000000    -0.000000    18.821358    -1.080265    -2.280580    37.702595    0.000000    -0.000000    18.851299    0.000000    -0.000000    25.157812    -2.406458    -4.428391    50.523087    0.000000    -0.000000    25.261543    0.000000    -0.000000    31.638979    -4.011159    -6.477069    63.732075    0.000000    -0.000000    31.866037    0.000000    -0.000000    -1.222420    0.843100    -4.615834    0.324689    -7.828066    22.101786    1.586221    5.341387    -25.164892    0.298503    -3.930286    -1.315493    -0.588405    -0.112508    4.505943    1.325139    -1.897658    -12.664615    -1.201496    -1.925867    1.478891    -0.049775    -2.600595    -0.191654    
